<svg width="95" height="112" viewBox="0 0 95 112" fill="none" xmlns="http://www.w3.org/2000/svg">
<path d="M1.89536 41.4845C3.41574 41.6385 4.93612 41.6858 6.44968 41.6029C7.67008 41.7095 8.45413 41.8398 9.66771 41.5556C10.2336 41.5556 10.8336 41.5556 11.3926 41.6029L18.0537 71.3631C19.165 76.337 20.4058 82.3174 21.6194 87.1492C22.6148 82.3174 23.7193 77.5685 24.6806 72.7368C25.7783 74.975 30.7212 85.3136 31.7235 86.7702C29.8963 94.2783 28.0964 101.822 26.3305 109.377C23.0171 109.342 19.7036 109.366 16.3969 109.449C12.9062 94.4086 9.2791 79.487 5.51564 64.6484C5.32474 63.6773 5.06567 62.6234 4.84068 61.6641C3.71573 56.9034 2.27717 51.5861 1.04996 46.8728L0.845407 45.9491C0.524968 44.6346 0.0272714 43.4622 0 42.124C0.354528 41.4016 0.299991 41.6384 1.04996 41.5082L1.88854 41.4727L1.89536 41.4845Z" fill="#1F304A"/>
<path d="M31.8463 41.7451L43.1912 41.6504C40.7163 51.3139 38.2755 61.8181 35.7461 71.2684C34.6757 68.9236 33.8712 67.017 32.4531 65.3117C31.0418 64.9327 28.1237 65.0511 26.542 64.9564L31.8395 41.7451H31.8463Z" fill="#1F304A"/>
<path d="M74.7711 41.5557L79.6527 41.6149C78.7255 43.865 77.9142 45.8071 76.8983 47.9625L76.3324 49.2414L74.8257 52.5218L74.3143 53.564C71.7781 58.9405 67.3601 68.2131 65.1989 73.7436C67.8101 79.274 70.1691 85.361 72.603 91.1402C75.1597 97.2035 77.7028 103.22 80.2049 109.354C76.0597 109.461 71.9213 109.484 67.776 109.425C66.3034 106.038 65.0011 102.509 63.6171 99.0154C61.7967 94.4205 59.915 89.8849 58.1628 85.2071C56.9697 87.5164 56.0152 89.3993 54.9175 91.8863C54.9789 97.7246 55.0062 103.575 54.9993 109.413H44.5544L44.4453 109.164C44.5271 108.347 48.086 100.602 48.6587 99.276C57.0788 79.5582 65.642 60.3142 74.7779 41.5557H74.7711Z" fill="#1F304A"/>
<path d="M45.1273 41.7098C47.7044 41.7098 51.7678 41.5439 54.8018 41.5439C54.6245 48.1047 54.7336 61.6762 54.7541 68.3672C53.6087 70.9488 45.1204 83.1703 44.1318 83.9756C44.4727 70.5225 44.0023 55.4589 44.3227 41.7216L45.1273 41.6979V41.7098Z" fill="#1F304A"/>
<path d="M43.443 111.935L94.9996 0L43.1908 85.4672L32.8004 64.885H20.4941L43.443 111.935Z" fill="url(#paint0_linear_905_391)"/>
<defs>
<linearGradient id="paint0_linear_905_391" x1="35.1389" y1="102.402" x2="87.6038" y2="48.5878" gradientUnits="userSpaceOnUse">
<stop stop-color="#B78F44"/>
<stop offset="1" stop-color="#D9B057"/>
</linearGradient>
</defs>
</svg>
