<svg width="56" height="56" viewBox="0 0 56 56" fill="none" xmlns="http://www.w3.org/2000/svg">
<path d="M1.11727 20.754C2.01351 20.831 2.90973 20.8547 3.80195 20.8132C4.52134 20.8665 4.98352 20.9317 5.6989 20.7895C6.03248 20.7895 6.38615 20.7895 6.7157 20.8132L10.6422 35.7019C11.2973 38.1903 12.0288 41.1823 12.7442 43.5995C13.3309 41.1823 13.982 38.8064 14.5487 36.3892C15.1957 37.5089 18.1095 42.6812 18.7003 43.4099C17.6232 47.1662 16.5622 50.9402 15.5213 54.7201C13.5681 54.7023 11.6148 54.7142 9.66563 54.7557C7.60791 47.2313 5.46982 39.7662 3.25135 32.3426C3.13882 31.8568 2.9861 31.3295 2.85347 30.8496C2.19034 28.4679 1.34234 25.8077 0.618925 23.4497L0.498349 22.9876C0.309457 22.3299 0.0160759 21.7434 0 21.0739C0.208987 20.7125 0.176838 20.831 0.618925 20.7658L1.11325 20.748L1.11727 20.754Z" fill="#1F304A"/>
<path d="M18.7732 20.8843L25.4608 20.8369C24.0019 25.6714 22.5631 30.9266 21.0721 35.6545C20.4411 34.4814 19.9669 33.5275 19.1309 32.6744C18.299 32.4848 16.5789 32.5441 15.6465 32.4967L18.7692 20.8843H18.7732Z" fill="#1F304A"/>
<path d="M44.0756 20.79L46.9532 20.8197C46.4066 21.9454 45.9284 22.917 45.3295 23.9953L44.996 24.6351L44.1078 26.2763L43.8063 26.7977C42.3113 29.4875 39.707 34.1265 38.433 36.8933C39.9722 39.6601 41.3628 42.7054 42.7976 45.5966C44.3047 48.6301 45.8038 51.6398 47.2787 54.7088C44.8352 54.7621 42.3957 54.774 39.9521 54.7443C39.084 53.0499 38.3164 51.2843 37.5006 49.5365C36.4275 47.2378 35.3183 44.9686 34.2854 42.6284C33.5821 43.7837 33.0194 44.7257 32.3724 45.9699C32.4085 48.8908 32.4246 51.8175 32.4206 54.7384H26.2635L26.1992 54.614C26.2474 54.2052 28.3453 50.3305 28.6829 49.6669C33.6464 39.8023 38.6942 30.1747 44.0796 20.79H44.0756Z" fill="#1F304A"/>
<path d="M26.6014 20.8671C28.1206 20.8671 30.5159 20.7842 32.3044 20.7842C32.1999 24.0664 32.2642 30.8561 32.2762 34.2036C31.601 35.4951 26.5974 41.6094 26.0146 42.0123C26.2156 35.2818 25.9383 27.7457 26.1272 20.8731L26.6014 20.8612V20.8671Z" fill="#1F304A"/>
<path d="M25.6089 56L56.0004 0L25.4602 42.7583L19.3353 32.4613H12.0811L25.6089 56Z" fill="url(#paint0_linear_846_153)"/>
<defs>
<linearGradient id="paint0_linear_846_153" x1="20.7138" y1="51.2306" x2="46.5057" y2="20.0592" gradientUnits="userSpaceOnUse">
<stop stop-color="#B78F44"/>
<stop offset="1" stop-color="#D9B057"/>
</linearGradient>
</defs>
</svg>
